<svg width="17" height="17" viewBox="0 0 17 17" fill="none" xmlns="http://www.w3.org/2000/svg">
<path d="M2.63796 3.72683L0 1.13237L1.15101 0L3.78816 2.59526H16.1865C16.3133 2.59525 16.4383 2.6244 16.5516 2.68038C16.6649 2.73636 16.7634 2.81762 16.8391 2.91768C16.9148 3.01774 16.9657 3.13382 16.9877 3.25666C17.0097 3.37951 17.0022 3.50571 16.9658 3.62519L15.0135 10.0273C14.9633 10.1922 14.8604 10.3368 14.72 10.4396C14.5796 10.5424 14.4093 10.5979 14.2343 10.5979H4.26483V12.1984H13.2126V13.7989H3.4514C3.23566 13.7989 3.02876 13.7146 2.87621 13.5646C2.72366 13.4145 2.63796 13.2109 2.63796 12.9987V3.72683ZM3.85811 17C3.53451 17 3.22416 16.8735 2.99534 16.6484C2.76652 16.4233 2.63796 16.118 2.63796 15.7996C2.63796 15.4812 2.76652 15.1759 2.99534 14.9508C3.22416 14.7257 3.53451 14.5992 3.85811 14.5992C4.18172 14.5992 4.49207 14.7257 4.72089 14.9508C4.94971 15.1759 5.07826 15.4812 5.07826 15.7996C5.07826 16.118 4.94971 16.4233 4.72089 16.6484C4.49207 16.8735 4.18172 17 3.85811 17ZM13.6193 17C13.2957 17 12.9854 16.8735 12.7565 16.6484C12.5277 16.4233 12.3992 16.118 12.3992 15.7996C12.3992 15.4812 12.5277 15.1759 12.7565 14.9508C12.9854 14.7257 13.2957 14.5992 13.6193 14.5992C13.9429 14.5992 14.2533 14.7257 14.4821 14.9508C14.7109 15.1759 14.8395 15.4812 14.8395 15.7996C14.8395 16.118 14.7109 16.4233 14.4821 16.6484C14.2533 16.8735 13.9429 17 13.6193 17Z" fill="#222223"/>
</svg>
