<svg width="23" height="20" viewBox="0 0 23 20" fill="none" xmlns="http://www.w3.org/2000/svg">
<path d="M6.42063 0.299723C8.37795 0.372961 9.97939 1.19322 11.1634 2.89233C11.3413 3.14866 11.4029 3.10472 11.5672 2.87768C13.1344 0.768443 15.1807 -0.11773 17.6376 0.482817C20.0945 1.08336 21.5933 2.77515 22.1682 5.38972C22.5651 7.19869 22.0792 8.83921 21.2237 10.3772C20.2861 12.0543 19.0406 13.4312 17.6855 14.7128C15.8171 16.4779 13.7777 17.9792 11.6287 19.3195C11.485 19.4074 11.3687 19.5026 11.1702 19.3781C8.36426 17.5838 5.71572 15.5697 3.45043 13.0284C2.45808 11.9225 1.60261 10.7141 1.00036 9.31525C-0.67637 5.44831 1.54102 1.0321 5.49672 0.380284C5.80222 0.327418 6.11116 0.300481 6.42063 0.299723Z" fill="#0071F9"/>
</svg>
