<svg width="25" height="25" viewBox="0 0 34 34" fill="none" xmlns="http://www.w3.org/2000/svg">
<path d="M26.5583 24.4071L33.603 31.4501L31.2756 33.7776L24.2325 26.7328C21.6119 28.8336 18.3523 29.9762 14.9936 29.9715C6.82214 29.9715 0.190247 23.3396 0.190247 15.1681C0.190247 6.9967 6.82214 0.364807 14.9936 0.364807C23.165 0.364807 29.7969 6.9967 29.7969 15.1681C29.8017 18.5268 28.6591 21.7864 26.5583 24.4071ZM23.2588 23.1866C25.3462 21.0399 26.512 18.1624 26.5073 15.1681C26.5073 8.80599 21.3541 3.65444 14.9936 3.65444C8.63143 3.65444 3.47987 8.80599 3.47987 15.1681C3.47987 21.5286 8.63143 26.6818 14.9936 26.6818C17.9878 26.6865 20.8654 25.5208 23.012 23.4333L23.2588 23.1866V23.1866Z" fill="#0071F9"/>
</svg>
