<svg width="17" height="17" viewBox="0 0 17 17" fill="none" xmlns="http://www.w3.org/2000/svg">
<path d="M0.485917 15.9056C0.482376 16.1535 0.751524 16.327 0.971092 16.2137C1.04311 16.1728 1.10775 16.1202 1.16233 16.0579L5.78034 11.4434C5.8196 11.4083 5.85629 11.3705 5.89012 11.3301C6.03532 11.1601 6.03532 10.9795 5.89012 10.8414C5.74493 10.7033 5.5714 10.7033 5.40141 10.852C5.36542 10.8832 5.33114 10.9163 5.29871 10.9512L0.670072 15.5763C0.577994 15.6719 0.493 15.7675 0.485917 15.9056Z" fill="white"/>
<path d="M0.48188 12.1272C0.499587 12.2618 0.55979 12.3751 0.690822 12.4282C0.821855 12.4814 0.98122 12.4495 1.09454 12.3362C1.31057 12.1237 1.51952 11.9112 1.732 11.6987L3.44605 9.98466C3.55937 9.87133 3.61249 9.7403 3.55937 9.58448C3.53886 9.52513 3.50145 9.47306 3.45175 9.43468C3.40204 9.39631 3.34221 9.37329 3.2796 9.36845C3.13086 9.3472 3.02462 9.42865 2.92546 9.52781L1.40265 11.0542L0.637701 11.8156C0.552707 11.9006 0.488963 11.9962 0.48188 12.1272Z" fill="white"/>
<path d="M7.05182 13.158C6.99751 13.1577 6.94371 13.1685 6.89376 13.1898C6.8438 13.2111 6.79876 13.2425 6.76142 13.2819C5.97877 14.0646 5.19258 14.8472 4.41346 15.6334C4.24702 15.7963 4.23993 16.0124 4.38159 16.1505C4.52325 16.2886 4.72157 16.2921 4.89864 16.1186L6.77559 14.2452C6.94204 14.0787 7.11203 13.9123 7.27139 13.7423C7.37763 13.629 7.40596 13.4944 7.33868 13.3492C7.31537 13.2924 7.27561 13.2438 7.2245 13.2097C7.17339 13.1756 7.11325 13.1576 7.05182 13.158Z" fill="white"/>
<path d="M16.2413 0.50062C16.3794 0.638736 16.344 0.794559 16.2873 0.957464L15.2886 3.88622L11.4462 15.1763C11.3506 15.449 11.2656 15.7216 11.1629 15.9943C11.0602 16.267 10.8052 16.3308 10.6104 16.1749C10.5361 16.1147 10.5077 16.0333 10.4759 15.9518L7.84458 9.10627C7.80562 9.01065 7.76667 8.93628 7.66043 8.89024C5.9393 8.14891 4.21934 7.40639 2.50058 6.66269L0.765279 5.91545C0.605915 5.84816 0.496131 5.749 0.481966 5.58256C0.4678 5.41611 0.588207 5.27799 0.779444 5.21779L4.01276 4.18724C7.93666 2.94066 11.8594 1.6929 15.7809 0.443958C15.9473 0.390837 16.1032 0.358963 16.2413 0.50062ZM8.49266 8.87962C9.26115 10.8664 10.0226 12.8566 10.8087 14.9L15.1576 2.13321C15.0585 2.13321 15.0372 2.18988 15.0018 2.22529L8.58119 8.64235C8.51745 8.70609 8.44308 8.75567 8.49266 8.87962ZM14.5662 1.55596C13.4447 1.91483 12.3221 2.27133 11.1983 2.62547C9.20094 3.26057 7.20358 3.89566 5.20622 4.53076C4.13199 4.87309 3.06012 5.21425 1.99061 5.55422L1.81708 5.61797C2.2031 5.78442 2.5714 5.94024 2.93617 6.0996L7.81979 8.21029C7.90833 8.24924 7.97561 8.27758 8.06769 8.1855C10.2563 5.98982 12.4484 3.79414 14.6441 1.59846C14.6476 1.53117 14.6052 1.54534 14.5662 1.55596Z" fill="white"/>
</svg>
