<svg width="15" height="15" viewBox="0 0 15 15" fill="none" xmlns="http://www.w3.org/2000/svg">
<path d="M3.47048 12.4429V1.44969C3.47424 1.3697 3.47054 1.28953 3.45943 1.21023C3.43243 1.08914 3.36298 0.981713 3.26365 0.907384C3.16432 0.833054 3.04166 0.796731 2.91788 0.804984C2.79164 0.81567 2.67366 0.872121 2.58613 0.963717C2.49861 1.05531 2.44758 1.17574 2.44264 1.30233C2.43895 1.36496 2.43895 1.4239 2.43895 1.48653V12.4023C2.37264 12.4207 2.35422 12.3581 2.32475 12.3286L1.29322 11.3082C1.04639 11.0613 0.751665 11.0503 0.530622 11.2713C0.30958 11.4924 0.328001 11.7871 0.574831 12.0339L2.54211 14.0012C2.81841 14.2775 3.09471 14.2738 3.37101 13.9975L5.33829 12.0339C5.49302 11.8792 5.57038 11.706 5.50407 11.485C5.43776 11.264 5.30145 11.1682 5.09883 11.1313C4.8962 11.0945 4.74516 11.1829 4.60516 11.3192L3.56258 12.3544L3.47048 12.4429Z" fill="black"/>
<path d="M10.1865 1.83659H14.2537C14.6847 1.83659 14.9426 1.44977 14.7547 1.08505C14.6663 0.919267 14.5263 0.834534 14.3458 0.808746H6.17088C6.09198 0.804344 6.01284 0.809289 5.9351 0.823481C5.81463 0.850605 5.70802 0.92035 5.6349 1.01987C5.56179 1.11938 5.5271 1.24196 5.53722 1.36503C5.5482 1.49178 5.60596 1.60991 5.69926 1.6964C5.79257 1.78289 5.91472 1.83155 6.04194 1.83291C6.44718 1.84028 6.85242 1.83659 7.25767 1.83659H10.1865Z" fill="black"/>
<path d="M10.1754 4.92743H7.11768C6.6977 4.93111 6.4435 5.31794 6.62402 5.6716C6.72348 5.86686 6.88927 5.95896 7.10294 5.95896H13.2111C13.6495 5.95896 13.911 5.5795 13.7268 5.21478C13.62 5.00479 13.4395 4.92743 13.2111 4.92743H10.1754Z" fill="black"/>
<path d="M10.1902 10.0851H12.1574C12.5148 10.0814 12.7506 9.87875 12.7542 9.57298C12.7579 9.2672 12.5222 9.05353 12.1685 9.05353H8.19341C7.83606 9.05353 7.60028 9.25615 7.5966 9.56561C7.59292 9.87507 7.83238 10.0851 8.20078 10.0851H10.1902Z" fill="black"/>
<path d="M10.157 13.176H9.18074C8.86023 13.176 8.62813 13.3933 8.62813 13.688C8.62813 13.9828 8.86023 14.2038 9.18074 14.2038H11.1664C11.4906 14.2038 11.7227 13.9828 11.7227 13.688C11.7227 13.3933 11.4943 13.176 11.1701 13.176H10.157Z" fill="black"/>
</svg>
